<?xml version="1.0" encoding="iso-8859-1"?>
<!-- Generator: Adobe Illustrator 18.0.0, SVG Export Plug-In . SVG Version: 6.00 Build 0)  -->
<!DOCTYPE svg PUBLIC "-//W3C//DTD SVG 1.1//EN" "http://www.w3.org/Graphics/SVG/1.1/DTD/svg11.dtd">
<svg version="1.1" id="Capa_1" xmlns="http://www.w3.org/2000/svg" xmlns:xlink="http://www.w3.org/1999/xlink" x="0px" y="0px"
	 viewBox="0 0 392.8 392.8" style="enable-background:new 0 0 392.8 392.8;" xml:space="preserve">
<polygon style="fill:#808080;" points="270.85,286.4 279.91,340.25 252.32,340.25 234.8,340.25 234.8,286.4 252.32,286.4 "/>
<path style="fill:#E2E0D0;" d="M117.4,254.4c27.61,0,50,22.39,50,50c0,27.62-22.39,50-50,50c-27.62,0-50-22.38-50-50
	C67.4,276.79,89.78,254.4,117.4,254.4z M139.32,304.4c0-12.11-9.82-21.92-21.92-21.92c-12.11,0-21.92,9.81-21.92,21.92
	c0,12.11,9.81,21.92,21.92,21.92C129.5,326.32,139.32,316.51,139.32,304.4z"/>
<path style="fill:#4D4D4D;" d="M117.4,282.48c12.1,0,21.92,9.81,21.92,21.92c0,12.11-9.82,21.92-21.92,21.92
	c-12.11,0-21.92-9.81-21.92-21.92C95.48,292.29,105.29,282.48,117.4,282.48z"/>
<rect x="71.4" y="196.4" style="fill:#E2E0D0;" width="92" height="26.34"/>
<path style="fill:#E2BAB5;" d="M234.8,340.25v26.187c0,8.816-7.147,15.963-15.963,15.963H15.963C7.147,382.4,0,375.253,0,366.436
	V238.703c0-8.816,7.147-15.963,15.963-15.963H36.88H71.4h92h51.4h4.037c8.816,0,15.963,7.147,15.963,15.963v7.697v40V340.25z
	 M167.332,307.043c1.529-29.696-22.879-54.104-52.575-52.575c-25.402,1.308-46.026,21.965-47.293,47.369
	c-1.479,29.644,22.855,53.978,52.499,52.499C145.367,353.069,166.024,332.445,167.332,307.043z"/>
<path style="fill:#999999;" d="M392.8,246.4v20.79c0,10.61-8.6,19.21-19.21,19.21H270.85h-18.53H234.8v-40H392.8z"/>
<path style="fill:#1A1A1A;" d="M392.8,29.61V246.4h-158v-3.66c0-11.046-8.954-20-20-20h0L284.9,10.4h88.69
	C384.199,10.4,392.8,19.001,392.8,29.61z"/>
<path style="fill:#4D4D4D;" d="M284.9,10.4l-70.1,212.34h-51.4V196.4h-92v26.34H36.88V29.61c0-10.61,8.6-19.21,19.21-19.21H220.8
	H284.9z"/>
<line style="fill:none;stroke:#000000;stroke-width:20;stroke-linejoin:round;stroke-miterlimit:10;" x1="392.8" y1="246.4" x2="234.8" y2="246.4"/>
<rect x="234.8" y="330.25" style="fill:#CCCCCC;" width="81.39" height="20"/>
<path style="fill:#E2E0D0;" d="M58.25,266.67H30.55c-3.949,0-7.15-3.201-7.15-7.15V248.82c0-3.949,3.201-7.15,7.15-7.15H58.25
	c3.949,0,7.15,3.201,7.15,7.15v10.699C65.4,263.469,62.199,266.67,58.25,266.67z"/>
<path style="fill:#4D4D4D;" d="M198.8,264.4c-2.63,0-5.21-1.07-7.07-2.93c-1.87-1.86-2.93-4.43-2.93-7.07
	c0-2.63,1.06-5.21,2.93-7.07c1.86-1.86,4.43-2.93,7.07-2.93c2.63,0,5.21,1.07,7.07,2.93c1.86,1.86,2.93,4.44,2.93,7.07
	s-1.07,5.21-2.93,7.07S201.43,264.4,198.8,264.4z"/>
<path style="fill:#E59683;" d="M218.837,222.74H214.8h-45.438l-24.235,40.058c14.102,9.419,23.154,25.81,22.204,44.245
	c-1.308,25.402-21.965,46.026-47.369,47.293c-9.65,0.481-18.728-1.786-26.545-6.068L72.768,382.4h146.068
	c8.816,0,15.963-7.147,15.963-15.964V340.25V286.4v-40v-7.697C234.8,229.887,227.653,222.74,218.837,222.74z"/>
<g>
</g>
<g>
</g>
<g>
</g>
<g>
</g>
<g>
</g>
<g>
</g>
<g>
</g>
<g>
</g>
<g>
</g>
<g>
</g>
<g>
</g>
<g>
</g>
<g>
</g>
<g>
</g>
<g>
</g>
</svg>
